<?xml version="1.0" encoding="utf-8"?>
<!-- Generator: Adobe Illustrator 26.4.1, SVG Export Plug-In . SVG Version: 6.00 Build 0)  -->
<svg version="1.1" id="Capa_1" xmlns="http://www.w3.org/2000/svg" xmlns:xlink="http://www.w3.org/1999/xlink" x="0px" y="0px"
	 viewBox="0 0 183.2 47.2" style="enable-background:new 0 0 183.2 47.2;" xml:space="preserve">
<style type="text/css">
	.st0{fill:#1565C0;}
	.st1{fill:#2196F3;}
	.st2{fill:#10519D;}
	.st3{fill:url(#SVGID_1_);}
	.st4{fill:#FFFFFF;stroke:#2662FA;stroke-width:0.25;stroke-miterlimit:10;}
	.st5{fill:#FFFFFF;}
	.st6{fill:none;stroke:#2662FA;stroke-width:0.25;stroke-miterlimit:10;}
	.st7{fill:#2662FA;}
</style>
<path class="st0" d="M-35.6,1.5L-40.8,4l-11.4,34.4l5.5-4L-35.6,1.5z"/>
<path class="st1" d="M-46.6,34.4l-5.5,4h20.3l-2.9-4H-46.6z"/>
<path class="st2" d="M-28.9,29.2l-4.8,1.9l-1.1,3.3l2.9,4L-28.9,29.2z"/>
<path class="st2" d="M-29.5,1.4l-9.1,24l5-1.7l4.2-10.7V1.4z"/>
<linearGradient id="SVGID_1_" gradientUnits="userSpaceOnUse" x1="-21.7242" y1="47.4362" x2="-21.7242" y2="3.2057" gradientTransform="matrix(1 0 0 -1 0 48.8928)">
	<stop  offset="0" style="stop-color:#1565C0"/>
	<stop  offset="1" style="stop-color:#1565C0"/>
</linearGradient>
<path class="st3" d="M-29.5,13.1V1.5L-14,45.7l-5.5-4L-29.5,13.1z"/>
<path class="st1" d="M-34.8,45.7H-14l-5.5-4h-19.1L-34.8,45.7z"/>
<path class="st4" d="M16.6,39.5H0.5V7.7h4.2v27.6h11.9V39.5z"/>
<path class="st4" d="M21.8,16.3v11.5c0,1.2,0.2,2.3,0.5,3.3c0.4,1,0.9,1.9,1.6,2.7c0.7,0.7,1.5,1.3,2.5,1.7c0.9,0.4,2,0.6,3.1,0.6
	c1,0,2-0.2,2.9-0.7c0.9-0.4,1.7-1,2.4-1.8c0.7-0.8,1.2-1.7,1.7-2.8c0.4-1.1,0.6-2.3,0.6-3.6V16.3h4v23.2h-4v-5.5
	c-0.9,1.7-2.1,3.1-3.5,4.1c-1.5,1-3.2,1.5-5.2,1.5c-1.5,0-2.9-0.3-4.2-0.8c-1.3-0.5-2.4-1.3-3.3-2.3c-0.9-1-1.7-2.1-2.2-3.5
	c-0.5-1.4-0.8-2.8-0.8-4.5V16.3H21.8z"/>
<path class="st4" d="M57.1,16.3l1.4,3.8l1.5-3.8h4.3l-3.7,9.3l3.3,9l7.6-18.3h4.3l-9.2,23.3h-4.3l-3.5-9.3L55,39.6h-4.3l-8.8-23.3
	h4.3L53,33.9l3.6-9.1l-3.2-8.5H57.1z"/>
<path class="st4" d="M78.8,16.3l6.9,17.8l6.8-17.8h4.3L84.9,46.4h-4l2.7-6.9l-9.2-23.3H78.8z"/>
<path class="st4" d="M102.4,12v23.4h3.5c1.6,0,3.1-0.3,4.5-0.9c1.4-0.6,2.6-1.4,3.7-2.5c1.1-1.1,1.9-2.3,2.5-3.7
	c0.6-1.4,0.9-2.9,0.9-4.5c0-1.6-0.3-3.1-0.9-4.5c-0.6-1.4-1.4-2.7-2.5-3.7c-1-1.1-2.3-1.9-3.7-2.5c-1.4-0.6-2.9-0.9-4.5-0.9H102.4z
	 M105.9,7.7c2.2,0,4.3,0.4,6.2,1.2c1.9,0.8,3.6,2,5,3.4c1.4,1.4,2.6,3.1,3.4,5.1c0.9,1.9,1.3,4,1.3,6.2s-0.4,4.3-1.3,6.2
	c-0.8,1.9-2,3.6-3.4,5c-1.4,1.4-3.1,2.5-5,3.4c-1.9,0.8-4,1.2-6.2,1.2h-7.7V7.7H105.9z"/>
<g>
	<polygon class="st5" points="127.1,16.3 134,34.1 140.8,16.3 145.1,16.3 133.2,46.4 129.2,46.4 131.9,39.6 122.8,16.3 	"/>
	<polygon class="st6" points="127.1,16.3 134,34.1 140.8,16.3 145.1,16.3 133.2,46.4 129.2,46.4 131.9,39.6 122.8,16.3 	"/>
</g>
<g>
	<path class="st5" d="M150.9,16.3v4c0.6-1.1,1.5-2.1,2.6-2.8c1.1-0.8,2.4-1.2,3.9-1.2v4c-0.8,0-1.6,0.2-2.4,0.5
		c-0.8,0.3-1.4,0.7-2,1.3c-0.6,0.5-1.1,1.1-1.5,1.8c-0.4,0.7-0.6,1.4-0.6,2.2v13.5h-4V16.3H150.9z"/>
	<path class="st6" d="M150.9,16.3v4c0.6-1.1,1.5-2.1,2.6-2.8c1.1-0.8,2.4-1.2,3.9-1.2v4c-0.8,0-1.6,0.2-2.4,0.5
		c-0.8,0.3-1.4,0.7-2,1.3c-0.6,0.5-1.1,1.1-1.5,1.8c-0.4,0.7-0.6,1.4-0.6,2.2v13.5h-4V16.3H150.9z"/>
</g>
<g>
	<path class="st5" d="M170.2,39.7c-1.6,0-3.2-0.3-4.6-0.9c-1.4-0.6-2.7-1.5-3.7-2.5c-1-1-1.9-2.3-2.5-3.7c-0.6-1.4-0.9-3-0.9-4.6
		c0-1.7,0.3-3.2,0.9-4.6c0.6-1.4,1.4-2.7,2.5-3.7c1-1.1,2.3-1.9,3.7-2.5c1.4-0.6,3-1,4.6-1c1.6,0,3.2,0.3,4.6,1
		c1.4,0.6,2.7,1.5,3.7,2.5c1,1,1.9,2.3,2.5,3.7c0.6,1.4,1,3,1,4.6c0,1.6-0.3,3.2-1,4.6c-0.6,1.4-1.4,2.7-2.5,3.7
		c-1,1-2.3,1.9-3.7,2.5C173.4,39.4,171.8,39.7,170.2,39.7z M170.2,20.3c-1,0-2,0.2-2.9,0.6c-0.9,0.4-1.7,1-2.4,1.6s-1.2,1.5-1.6,2.4
		c-0.4,0.9-0.6,1.9-0.6,2.9c0,1,0.2,2,0.6,2.9c0.4,0.9,0.9,1.7,1.6,2.4c0.7,0.7,1.5,1.2,2.4,1.6c0.9,0.4,1.9,0.6,2.9,0.6
		c1,0,2-0.2,2.9-0.6c0.9-0.4,1.7-0.9,2.4-1.6c0.7-0.7,1.2-1.5,1.6-2.4c0.4-0.9,0.6-1.9,0.6-2.9c0-1-0.2-2-0.6-2.9
		c-0.4-0.9-0.9-1.7-1.6-2.4c-0.7-0.7-1.5-1.2-2.4-1.6C172.2,20.5,171.2,20.3,170.2,20.3z"/>
	<path class="st7" d="M170.2,16.2c1.6,0,3.1,0.3,4.5,0.9c1.4,0.6,2.6,1.4,3.7,2.5c1,1,1.9,2.3,2.5,3.7c0.6,1.4,0.9,3,0.9,4.6
		c0,1.6-0.3,3.1-0.9,4.5c-0.6,1.4-1.4,2.7-2.5,3.7c-1,1-2.3,1.9-3.7,2.5c-1.4,0.6-2.9,0.9-4.5,0.9c-1.6,0-3.2-0.3-4.6-0.9
		c-1.4-0.6-2.6-1.5-3.7-2.5c-1-1-1.9-2.3-2.5-3.7c-0.6-1.4-0.9-2.9-0.9-4.5c0-1.6,0.3-3.2,0.9-4.6c0.6-1.4,1.4-2.7,2.5-3.7
		c1-1.1,2.3-1.9,3.7-2.5C167.1,16.5,168.6,16.2,170.2,16.2 M170.2,35.6c1,0,2-0.2,2.9-0.6c0.9-0.4,1.8-1,2.5-1.7
		c0.7-0.7,1.2-1.5,1.6-2.4c0.4-0.9,0.6-1.9,0.6-3c0-1-0.2-2-0.6-3c-0.4-0.9-0.9-1.8-1.6-2.5c-0.7-0.7-1.5-1.2-2.5-1.7
		c-0.9-0.4-1.9-0.6-2.9-0.6c-1,0-2,0.2-3,0.6c-0.9,0.4-1.7,1-2.4,1.7c-0.7,0.7-1.2,1.5-1.7,2.5c-0.4,0.9-0.6,1.9-0.6,3
		c0,1,0.2,2,0.6,3c0.4,0.9,1,1.7,1.7,2.4c0.7,0.7,1.5,1.2,2.4,1.7C168.2,35.4,169.2,35.6,170.2,35.6 M170.2,15.9
		c-1.7,0-3.2,0.3-4.7,1c-1.4,0.6-2.7,1.5-3.8,2.6c-1.1,1.1-1.9,2.3-2.5,3.8c-0.6,1.4-0.9,3-0.9,4.7c0,1.6,0.3,3.2,0.9,4.6
		c0.6,1.4,1.5,2.7,2.5,3.8c1.1,1.1,2.3,1.9,3.8,2.6c1.4,0.6,3,0.9,4.7,0.9c1.6,0,3.2-0.3,4.6-0.9c1.4-0.6,2.7-1.5,3.8-2.6
		c1.1-1.1,1.9-2.3,2.5-3.8c0.6-1.4,1-3,1-4.6c0-1.7-0.3-3.2-1-4.7c-0.6-1.4-1.5-2.7-2.5-3.8c-1.1-1.1-2.3-2-3.8-2.6
		C173.4,16.3,171.9,15.9,170.2,15.9L170.2,15.9z M170.2,35.3c-1,0-2-0.2-2.9-0.6c-0.9-0.4-1.7-0.9-2.3-1.6c-0.7-0.7-1.2-1.5-1.6-2.3
		c-0.4-0.9-0.5-1.9-0.5-2.9c0-1,0.2-2,0.5-2.9c0.4-0.9,0.9-1.7,1.6-2.4c0.7-0.7,1.5-1.2,2.3-1.6c0.9-0.4,1.9-0.6,2.9-0.6
		c1,0,2,0.2,2.8,0.6c0.9,0.4,1.7,0.9,2.4,1.6c0.7,0.7,1.2,1.5,1.6,2.4c0.4,0.9,0.6,1.9,0.6,2.9c0,1-0.2,2-0.6,2.9
		c-0.4,0.9-0.9,1.7-1.6,2.3c-0.7,0.7-1.5,1.2-2.4,1.6C172.2,35.1,171.2,35.3,170.2,35.3L170.2,35.3z"/>
</g>
</svg>
