<?xml version="1.0" encoding="utf-8"?>
<!-- Generator: Adobe Illustrator 26.4.1, SVG Export Plug-In . SVG Version: 6.00 Build 0)  -->
<svg version="1.1" id="Capa_1" xmlns="http://www.w3.org/2000/svg" xmlns:xlink="http://www.w3.org/1999/xlink" x="0px" y="0px"
	 viewBox="0 0 40.1 45" style="enable-background:new 0 0 40.1 45;" xml:space="preserve">
<style type="text/css">
	.st0{fill:#1565C0;}
	.st1{fill:#2196F3;}
	.st2{fill:#10519D;}
	.st3{fill:url(#SVGID_1_);}
	.st4{fill:#FFFFFF;}
</style>
<path class="st0" d="M17.4,0l-5.1,2.5L0.9,36.9l5.5-4L17.4,0z"/>
<path class="st1" d="M6.4,32.9l-5.5,4h20.3l-2.9-4H6.4z"/>
<path class="st2" d="M24.1,27.7l-4.8,1.9l-1.1,3.3l2.9,4L24.1,27.7z"/>
<path class="st2" d="M23.6,0l-9.1,24l5-1.7l4.2-10.7V0z"/>
<linearGradient id="SVGID_1_" gradientUnits="userSpaceOnUse" x1="31.3256" y1="45.9897" x2="31.3256" y2="1.7593" gradientTransform="matrix(1 0 0 -1 0 46)">
	<stop  offset="0" style="stop-color:#1565C0"/>
	<stop  offset="1" style="stop-color:#1565C0"/>
</linearGradient>
<path class="st3" d="M23.6,11.6V0l15.5,44.2l-5.5-4L23.6,11.6z"/>
<path class="st1" d="M18.3,44.2h20.8l-5.5-4H14.4L18.3,44.2z"/>
<path class="st4" d="M69.6,38H53.5V6.3h4.2v27.6h11.9V38z"/>
<path class="st4" d="M74.9,14.8v11.5c0,1.2,0.2,2.3,0.5,3.3c0.4,1,0.9,1.9,1.6,2.7c0.7,0.7,1.5,1.3,2.5,1.7c0.9,0.4,2,0.6,3.1,0.6
	c1,0,2-0.2,2.9-0.7c0.9-0.4,1.7-1,2.4-1.8c0.7-0.8,1.2-1.7,1.7-2.8c0.4-1.1,0.6-2.3,0.6-3.6V14.8h4V38h-4v-5.5
	c-0.9,1.7-2.1,3.1-3.5,4.1c-1.5,1-3.2,1.5-5.2,1.5c-1.5,0-2.9-0.3-4.2-0.8c-1.3-0.5-2.4-1.3-3.3-2.3c-0.9-1-1.7-2.1-2.2-3.5
	c-0.5-1.4-0.8-2.8-0.8-4.5V14.8H74.9z"/>
<path class="st4" d="M110.1,14.8l1.4,3.8l1.5-3.8h4.3l-3.7,9.3l3.3,9l7.6-18.3h4.3l-9.2,23.3h-4.3l-3.5-9.3l-3.6,9.3h-4.3l-8.8-23.3
	h4.3l6.8,17.6l3.6-9.1l-3.2-8.5H110.1z"/>
<path class="st4" d="M131.8,14.8l6.9,17.8l6.8-17.8h4.3L138,45h-4l2.7-6.9l-9.2-23.3H131.8z"/>
<path class="st4" d="M155.4,10.5v23.4h3.5c1.6,0,3.1-0.3,4.5-0.9c1.4-0.6,2.6-1.4,3.7-2.5c1.1-1.1,1.9-2.3,2.5-3.7
	c0.6-1.4,0.9-2.9,0.9-4.5c0-1.6-0.3-3.1-0.9-4.5c-0.6-1.4-1.4-2.7-2.5-3.7c-1-1.1-2.3-1.9-3.7-2.5c-1.4-0.6-2.9-0.9-4.5-0.9H155.4z
	 M159,6.3c2.2,0,4.3,0.4,6.2,1.2c1.9,0.8,3.6,2,5,3.4c1.4,1.4,2.6,3.1,3.4,5.1c0.9,1.9,1.3,4,1.3,6.2s-0.4,4.3-1.3,6.2
	c-0.8,1.9-2,3.6-3.4,5c-1.4,1.4-3.1,2.5-5,3.4c-1.9,0.8-4,1.2-6.2,1.2h-7.7V6.3H159z"/>
<path class="st4" d="M180.1,14.8l6.9,17.8l6.8-17.8h4.3L186.3,45h-4l2.7-6.9l-9.2-23.3H180.1z"/>
<path class="st4" d="M204,14.8v4c0.6-1.1,1.5-2.1,2.6-2.8c1.1-0.8,2.4-1.2,3.9-1.2v4c-0.8,0-1.6,0.2-2.4,0.5c-0.8,0.3-1.4,0.7-2,1.3
	c-0.6,0.5-1.1,1.1-1.5,1.8c-0.4,0.7-0.6,1.4-0.6,2.2V38h-4V14.8H204z"/>
<path class="st4" d="M230.9,26.5c0-1-0.2-2-0.6-3c-0.4-0.9-0.9-1.8-1.6-2.5c-0.7-0.7-1.5-1.2-2.5-1.7c-0.9-0.4-1.9-0.6-2.9-0.6
	c-1,0-2,0.2-3,0.6c-0.9,0.4-1.7,1-2.4,1.7c-0.7,0.7-1.2,1.5-1.7,2.5c-0.4,0.9-0.6,1.9-0.6,3c0,1,0.2,2,0.6,3c0.4,0.9,1,1.7,1.7,2.4
	c0.7,0.7,1.5,1.2,2.4,1.7c0.9,0.4,1.9,0.6,3,0.6c1,0,2-0.2,2.9-0.6c0.9-0.4,1.8-1,2.5-1.7c0.7-0.7,1.2-1.5,1.6-2.4
	C230.7,28.5,230.9,27.5,230.9,26.5z M234.9,26.5c0,1.6-0.3,3.1-0.9,4.5c-0.6,1.4-1.4,2.7-2.5,3.7c-1,1-2.3,1.9-3.7,2.5
	c-1.4,0.6-2.9,0.9-4.5,0.9c-1.6,0-3.2-0.3-4.6-0.9c-1.4-0.6-2.6-1.5-3.7-2.5c-1-1-1.9-2.3-2.5-3.7c-0.6-1.4-0.9-2.9-0.9-4.5
	c0-1.6,0.3-3.2,0.9-4.6c0.6-1.4,1.4-2.7,2.5-3.7c1-1.1,2.3-1.9,3.7-2.5c1.4-0.6,2.9-0.9,4.6-0.9c1.6,0,3.1,0.3,4.5,0.9
	c1.4,0.6,2.6,1.4,3.7,2.5c1,1,1.9,2.3,2.5,3.7C234.6,23.3,234.9,24.8,234.9,26.5z"/>
</svg>
