<svg width="76" height="76" viewBox="0 0 76 76" fill="none" xmlns="http://www.w3.org/2000/svg">
<g id="Frame">
<g id="Innovative product 1">
<g id="Group">
<path id="Vector" opacity="0.2" d="M26.3477 51.4543C36.8411 51.4543 45.3477 42.9478 45.3477 32.4543C45.3477 21.9609 36.8411 13.4543 26.3477 13.4543C15.8542 13.4543 7.34766 21.9609 7.34766 32.4543C7.34766 42.9478 15.8542 51.4543 26.3477 51.4543Z" fill="#F4F8F7"/>
<path id="Vector_2" opacity="0.2" d="M58.6358 63.2284C63.5218 63.2284 67.4827 59.2675 67.4827 54.3815C67.4827 49.4955 63.5218 45.5347 58.6358 45.5347C53.7498 45.5347 49.7889 49.4955 49.7889 54.3815C49.7889 59.2675 53.7498 63.2284 58.6358 63.2284Z" fill="#F4F8F7"/>
<g id="Group_2">
<g id="Group_3">
<g id="Group_4">
<path id="Vector_3" d="M44.457 36.2573L34.5533 36.2751C33.7398 36.2781 33.0778 35.6161 33.0748 34.8026V34.7106C33.0719 33.8972 33.7339 33.2351 34.5473 33.2322L44.4511 33.2144C45.2645 33.2114 45.9266 33.8734 45.9295 34.6869V34.7789C45.9295 35.5953 45.2705 36.2573 44.457 36.2573Z" fill="#FFB711" stroke="white" stroke-miterlimit="10" stroke-linecap="round"/>
<path id="Vector_4" d="M42.3106 39.327L36.6997 39.3389C35.8833 39.3418 35.2183 38.6798 35.2183 37.8634V37.7714C35.2153 36.955 35.8773 36.29 36.6937 36.29L42.3047 36.2781C43.1211 36.2751 43.7861 36.9371 43.7861 37.7536V37.8456C43.7861 38.662 43.127 39.324 42.3106 39.327Z" stroke="white" stroke-miterlimit="10" stroke-linecap="round"/>
<path id="Vector_5" d="M39.5052 41.797C38.3206 41.8 37.3587 40.85 37.3587 39.6803L37.3558 39.3389L41.6426 39.33L41.6456 39.6714C41.6486 40.8411 40.6897 41.794 39.5052 41.797Z" fill="#FFB711" stroke="white" stroke-miterlimit="10" stroke-linecap="round"/>
<path id="Vector_6" d="M46.2798 13.4721C45.6059 12.6883 44.5995 11.8037 43.1715 11.1772" stroke="white" stroke-miterlimit="10" stroke-linecap="round"/>
<path id="Vector_7" d="M47.7048 15.6127C47.6217 15.39 47.5148 15.105 47.3159 14.7784" stroke="white" stroke-miterlimit="10" stroke-linecap="round"/>
<path id="Vector_8" d="M50.5192 19.4423C50.5192 13.0921 45.1458 7.9948 38.7006 8.45199C33.2916 8.83496 28.9126 13.199 28.5119 18.6051C28.2001 22.8207 30.2634 26.5792 33.4994 28.684C34.1851 29.1293 34.6037 29.8834 34.6037 30.6998V33.2173H44.3976V30.7028C44.3976 29.8775 44.8311 29.1234 45.5228 28.6692C48.5301 26.7009 50.5192 23.3046 50.5192 19.4423Z" stroke="white" stroke-miterlimit="10" stroke-linecap="round"/>
</g>
</g>
<g id="Group 2146 1">
<path id="Path 87760 1" d="M39.6717 32.9079V26.9615C39.6717 25.9551 38.8553 25.1387 37.8489 25.1387H36.4565C35.3848 25.1387 34.515 24.2688 34.515 23.1971C34.515 22.1254 35.3848 21.2555 36.4565 21.2526H36.7594" stroke="white" stroke-miterlimit="10" stroke-linecap="round"/>
<path id="Path 87761 1" d="M33.9568 23.0487C33.9568 23.0487 30.7654 22.5855 30.9347 19.9849C31.1039 17.3813 33.7461 17.0874 34.2923 17.0874" stroke="white" stroke-miterlimit="10" stroke-linecap="round"/>
<path id="Path 87762 1" d="M34.2923 18.5985C34.2923 18.5985 33.6214 15.1578 36.6851 14.4838C39.7489 13.8099 40.6722 16.4135 40.6722 16.4135C41.729 16.2354 42.8037 16.6362 43.4836 17.4645C44.7423 18.8924 43.6083 20.8221 43.6083 20.8221" stroke="white" stroke-miterlimit="10" stroke-linecap="round"/>
<path id="Path 87763 1" d="M36.032 18.6222C36.3912 17.6693 37.457 17.1883 38.41 17.5475C39.363 17.9068 39.8439 18.9725 39.4847 19.9255C39.4758 19.9493 39.4669 19.973 39.458 19.9968" stroke="white" stroke-miterlimit="10" stroke-linecap="round"/>
<path id="Path 87764 1" d="M41.5806 19.6139C41.9784 20.552 41.5361 21.6356 40.5979 22.0305C39.6598 22.4283 38.5762 21.9859 38.1814 21.0478" stroke="white" stroke-miterlimit="10" stroke-linecap="round"/>
<path id="Path 87765 1" d="M43.923 19.9019C45.152 20.4986 45.6626 21.98 45.0659 23.209C44.4692 24.4381 42.9878 24.9487 41.7587 24.352C40.9067 23.9364 40.3664 23.0725 40.3664 22.1284" stroke="white" stroke-miterlimit="10" stroke-linecap="round"/>
</g>
</g>
<path id="Icon ionic ios settings 1" d="M50.1036 24.9197C50.3737 25.0177 50.632 25.1691 50.8547 25.3769C51.3178 25.8044 51.5761 26.407 51.5672 27.0364C52.4875 27.17 53.4256 27.1581 54.343 26.9978C54.2955 25.7747 55.2455 24.7475 56.4656 24.697C56.7773 24.6852 57.0891 24.7386 57.377 24.8544C57.665 24.9672 57.9292 25.1423 58.143 25.368C58.8881 24.8098 59.5412 24.1359 60.0786 23.3759C59.179 22.5447 59.1226 21.1405 59.9539 20.2409C60.3784 19.7808 60.9811 19.5225 61.6075 19.5284C61.7411 18.6081 61.7292 17.67 61.5689 16.7527C60.3458 16.8002 59.3186 15.8472 59.2711 14.6241C59.2473 13.9977 59.4908 13.392 59.9361 12.9556C59.3809 12.2075 58.71 11.5544 57.95 11.017C57.1187 11.9136 55.7205 11.967 54.8239 11.1388C54.3637 10.7142 54.1055 10.1116 54.1144 9.48516C53.1941 9.35157 52.2559 9.36344 51.3386 9.52376C51.3801 10.7469 50.4242 11.7741 49.2011 11.8156M51.0744 15.105C51.9828 14.6063 53.0961 14.5023 54.1322 14.918H54.1351C55.9401 15.6394 56.8397 17.6611 56.1806 19.475C55.5186 21.3067 53.4375 22.2923 51.6028 21.6392" stroke="white" stroke-miterlimit="10" stroke-linecap="round" stroke-linejoin="round"/>
<g id="Group_5">
<path id="Vector_9" d="M64.8791 37.1005V35.0698" stroke="white" stroke-miterlimit="10" stroke-linecap="round"/>
<path id="Vector_10" d="M61.1088 38.8431H62.8485" stroke="white" stroke-miterlimit="10" stroke-linecap="round"/>
<path id="Vector_11" d="M66.9097 38.8431H68.6494" stroke="white" stroke-miterlimit="10" stroke-linecap="round"/>
<path id="Vector_12" d="M64.8791 42.6134V40.2919" stroke="white" stroke-miterlimit="10" stroke-linecap="round"/>
</g>
<g id="Group_6">
<path id="Vector_13" d="M23.2216 28.4911C22.2508 27.8795 21.1553 27.36 19.9144 26.9711" stroke="white" stroke-miterlimit="10" stroke-linecap="round" stroke-linejoin="round"/>
<path id="Vector_14" d="M30.6464 42.0524C30.6464 42.0524 30.2931 34.8175 25.3205 30.121" stroke="white" stroke-miterlimit="10" stroke-linecap="round" stroke-linejoin="round"/>
<g id="Group_7">
<path id="Vector_15" d="M15.2742 22.7169V21.4581" stroke="white" stroke-miterlimit="10" stroke-linecap="round"/>
<path id="Vector_16" d="M12.3708 24.3586H13.4366" stroke="white" stroke-miterlimit="10" stroke-linecap="round"/>
<path id="Vector_17" d="M17.0139 24.3586H18.1747" stroke="white" stroke-miterlimit="10" stroke-linecap="round"/>
<path id="Vector_18" d="M15.2742 27.2591V25.8103" stroke="white" stroke-miterlimit="10" stroke-linecap="round"/>
</g>
</g>
<g id="Group_8">
<g id="Group_9">
<path id="Vector_19" d="M59.3186 50.3589V67.5776H20.4309V50.6558" stroke="white" stroke-miterlimit="10" stroke-linecap="round" stroke-linejoin="round"/>
<path id="Vector_20" d="M36.8333 50.6498H17.8838L20.7189 44.7212H39.6714L36.8333 50.6498Z" fill="#2662FA" stroke="white" stroke-miterlimit="10" stroke-linecap="round" stroke-linejoin="round"/>
<path id="Vector_21" d="M42.6253 50.6498H61.8005L58.9653 44.7212H39.7872L42.6253 50.6498Z" fill="#2662FA" stroke="white" stroke-miterlimit="10" stroke-linecap="round" stroke-linejoin="round"/>
<path id="Vector_22" d="M39.7249 45.0181V59.562" stroke="white" stroke-miterlimit="10" stroke-linecap="round" stroke-linejoin="round"/>
<path id="Vector_23" d="M39.7249 61.3433V67.2808" stroke="white" stroke-miterlimit="10" stroke-linecap="round" stroke-linejoin="round"/>
</g>
<g id="Group_10">
<path id="Vector_24" d="M25.7747 60.4526H29.6311" stroke="white" stroke-miterlimit="10" stroke-linecap="round"/>
<path id="Vector_25" d="M25.7747 62.8276H29.6311" stroke="white" stroke-miterlimit="10" stroke-linecap="round"/>
<path id="Vector_26" d="M31.4124 62.8276H32.0061" stroke="white" stroke-miterlimit="10" stroke-linecap="round"/>
</g>
<g id="Group_11">
<path id="Vector_27" d="M51.8967 51.5464V53.9214" stroke="white" stroke-miterlimit="10" stroke-linecap="round"/>
<path id="Vector_28" d="M53.0842 58.0538L51.5375 56.7713L50.0561 58.3745L48.3728 56.7713L46.553 58.0538V50.6498H53.0842V58.0538Z" stroke="white" stroke-miterlimit="10" stroke-linecap="round"/>
</g>
</g>
<g id="Group_12">
<path id="Vector_29" d="M12.9497 38.0416L13.6978 38.7868" stroke="white" stroke-miterlimit="10" stroke-linecap="round"/>
<path id="Vector_30" d="M16.6072 38.0416L17.3523 38.7868" stroke="white" stroke-miterlimit="10" stroke-linecap="round"/>
<path id="Vector_31" d="M20.2617 38.0416L21.0098 38.7868" stroke="white" stroke-miterlimit="10" stroke-linecap="round"/>
<path id="Vector_32" d="M12.9497 34.1763L13.6978 34.9244" stroke="white" stroke-miterlimit="10" stroke-linecap="round"/>
<path id="Vector_33" d="M16.6072 34.1763L17.3523 34.9244" stroke="white" stroke-miterlimit="10" stroke-linecap="round"/>
<path id="Vector_34" d="M20.2617 34.1763L21.0098 34.9244" stroke="white" stroke-miterlimit="10" stroke-linecap="round"/>
</g>
<g id="Group_13">
<path id="Vector_35" d="M48.3401 42.0524C48.3401 42.0524 48.6073 36.5869 53.2712 35.1233" stroke="white" stroke-miterlimit="10" stroke-linecap="round" stroke-linejoin="round"/>
<path id="Vector_36" d="M57.187 34.7996C58.0675 34.7996 58.7812 34.0859 58.7812 33.2054C58.7812 32.325 58.0675 31.6112 57.187 31.6112C56.3066 31.6112 55.5928 32.325 55.5928 33.2054C55.5928 34.0859 56.3066 34.7996 57.187 34.7996Z" fill="#FFB711" stroke="white" stroke-miterlimit="10" stroke-linecap="round"/>
</g>
</g>
</g>
</g>
</svg>
