<?xml version="1.0" encoding="utf-8"?>
<!-- Generator: Adobe Illustrator 26.4.1, SVG Export Plug-In . SVG Version: 6.00 Build 0)  -->
<svg version="1.1" id="Capa_1" xmlns="http://www.w3.org/2000/svg" xmlns:xlink="http://www.w3.org/1999/xlink" width="76" height="76"
	 viewBox="0 0 76 76" style="enable-background:new 0 0 76 76;" xml:space="preserve">
<style type="text/css">
	.st0{fill:#FFFFFF;}
	.st1{fill:#3B6EED;}
	.st2{fill:#FFB711;}
	.st3{opacity:0.32;fill:#FFFFFF;}
	.st4{fill:none;stroke:#FFFFFF;stroke-linecap:round;stroke-miterlimit:10;}
</style>
<g>
	<path class="st0" d="M26.8,17.3c0.5,0,0.9,0.4,0.9,0.9c0,0.5-0.4,0.9-0.9,0.9c-0.5,0-0.9-0.4-0.9-0.9
		C25.9,17.7,26.3,17.3,26.8,17.3z"/>
	<path class="st0" d="M59.1,16c0.5,0,0.9,0.4,0.9,0.9c0,0.5-0.4,0.9-0.9,0.9c-0.5,0-0.9-0.4-0.9-0.9C58.2,16.4,58.6,16,59.1,16z"/>
	<path class="st0" d="M58.5,41.7c0.5,0,0.9,0.4,0.9,0.9c0,0.5-0.4,0.9-0.9,0.9c-0.5,0-0.9-0.4-0.9-0.9C57.6,42.1,58,41.7,58.5,41.7z
		"/>
	<path class="st0" d="M52.8,67.9c0.5,0,0.9,0.4,0.9,0.9c0,0.5-0.4,0.9-0.9,0.9c-0.5,0-0.9-0.4-0.9-0.9
		C51.9,68.3,52.3,67.9,52.8,67.9z"/>
	<path class="st0" d="M29.3,65.4c0.5,0,0.9,0.4,0.9,0.9c0,0.5-0.4,0.9-0.9,0.9c-0.5,0-0.9-0.4-0.9-0.9
		C28.4,65.8,28.8,65.4,29.3,65.4z"/>
	<path class="st0" d="M7.3,42.9c0.5,0,0.9,0.4,0.9,0.9c0,0.5-0.4,0.9-0.9,0.9c-0.5,0-0.9-0.4-0.9-0.9C6.4,43.3,6.8,42.9,7.3,42.9z"
		/>
	<path class="st0" d="M58.4,56c0-4.8-3.9-8.8-8.9-8.8c-3,0-5.7,1.5-7.3,3.8c-0.6-4.3-4.2-7.5-8.8-7.5c-4.6,0-8.2,3.3-8.8,7.5
		c-1.6-2.3-4.2-3.8-7.3-3.8c-4.9,0-8.9,3.9-8.9,8.8c0,1.9,0.6,3.6,1.6,5c0,0,0,0.1,0.1,0.1c1.6,2.2,4.2,3.7,7.2,3.7
		c4.5,0,8.2-3.3,8.8-7.5c1.6,2.3,4.3,3.8,7.3,3.8s5.7-1.5,7.3-3.8c0.6,4.3,4.3,7.5,8.8,7.5c2.9,0,5.6-1.5,7.2-3.7c0,0,0,0,0.1-0.1
		C57.8,59.6,58.4,57.9,58.4,56z M33.5,44.8c4.1,0,7.6,3.4,7.6,7.5c0,1.3-0.3,2.5-0.9,3.6c-1.1-1.3-2.5-2.2-4.1-2.6
		c0.8-0.7,1.3-1.7,1.3-2.8c0-2.1-1.7-3.8-3.8-3.8c-2.1,0-3.8,1.7-3.8,3.8c0,1.1,0.5,2.2,1.3,2.8c-1.6,0.5-3,1.4-4.1,2.6
		c-0.6-1.1-0.9-2.3-0.9-3.6C25.9,48.1,29.3,44.8,33.5,44.8z M31,50.4c0-1.4,1.1-2.5,2.5-2.5c1.4,0,2.5,1.1,2.5,2.5
		c0,1.4-1.1,2.5-2.5,2.5C32.1,52.9,31,51.8,31,50.4z M24.1,59.6c-1.1-1.3-2.5-2.2-4.1-2.6c0.8-0.7,1.3-1.7,1.3-2.8
		c0-2.1-1.7-3.8-3.8-3.8c-2.1,0-3.7,1.7-3.7,3.8c0,1.1,0.5,2.2,1.3,2.8c-1.6,0.5-3,1.4-4.1,2.6c-0.6-1.1-0.9-2.3-0.9-3.6
		c0-4.1,3.4-7.5,7.6-7.5c4.1,0,7.6,3.4,7.6,7.5C25,57.3,24.7,58.5,24.1,59.6z M27.5,56.9c1.4-1.8,3.6-2.8,6-2.8c2.3,0,4.5,1,6,2.8
		C36.3,60.7,30.6,60.7,27.5,56.9z M49.6,48.5c4.1,0,7.6,3.4,7.6,7.5c0,1.3-0.3,2.5-0.9,3.6c-1.1-1.3-2.5-2.2-4.1-2.6
		c0.8-0.7,1.3-1.7,1.3-2.8c0-2.1-1.7-3.8-3.8-3.8c-2.1,0-3.8,1.7-3.8,3.8c0,1.1,0.5,2.2,1.3,2.8c-1.6,0.5-3,1.4-4.1,2.6
		C42.3,58.5,42,57.3,42,56C42,51.9,45.3,48.5,49.6,48.5z"/>
	<g id="XMLID_00000181053580433943535650000016311196121693002881_">
		<g>
			<path class="st1" d="M49.6,57.9c2.3,0,4.5,1,6,2.8c-3.1,3.7-8.9,3.7-11.9,0C45,58.9,47.2,57.9,49.6,57.9z"/>
		</g>
		<g>
		</g>
	</g>
	<g id="XMLID_00000005233484655368744030000005606619082888646076_">
		<g>
			<ellipse class="st1" cx="49.6" cy="54.1" rx="2.5" ry="2.5"/>
		</g>
		<g>
		</g>
	</g>
	<g id="XMLID_00000125591514201466351890000002287382195844276390_">
		<g>
			<path class="st2" d="M17.5,57.9c2.3,0,4.5,1,6,2.8c-3.2,3.7-8.9,3.7-11.9,0C12.9,58.9,15.2,57.9,17.5,57.9z"/>
		</g>
		<g>
		</g>
	</g>
	<g id="XMLID_00000176723580046665220980000002843676126084765356_">
		<g>
			<ellipse class="st2" cx="17.4" cy="54.1" rx="2.5" ry="2.5"/>
		</g>
		<g>
		</g>
	</g>
	<path class="st0" d="M56.5,21.6H33.2c-2.6,0-4.8,2.1-4.8,4.7c0,1.4,0.6,2.6,1.5,3.4H16.7c-2.9,0-5.4,2.4-5.4,5.3v9.1
		c0,0.5,0.6,0.8,1,0.5l6.5-4.3h33.3c2.9,0,5.4-2.4,5.4-5.3c0-1.6-0.7-3.1-1.9-4.1h5.1c0.3,0,0.6-0.3,0.6-0.6v-4.1
		C61.3,23.7,59.2,21.6,56.5,21.6z M56.2,35.1c0,2.2-1.8,4.1-4.1,4.1H18.6c-0.1,0-0.2,0-0.3,0.1L12.6,43v-7.9c0-2.2,1.8-4.1,4.1-4.1
		c0.1,0,34.2,0,35.4,0C54.4,31,56.2,32.8,56.2,35.1z M60,29.8c-1.6,0-25.3,0-26.9,0c-1.9,0-3.4-1.5-3.4-3.4c0-1.9,1.5-3.4,3.4-3.4
		h23.5c1.9,0,3.4,1.5,3.4,3.4V29.8z"/>
	<path class="st0" d="M14.5,26c2.4,0,4.5-2,4.5-4.4c0-2.4-2-4.4-4.5-4.4c-2.4,0-4.5,2-4.5,4.4C10,24,12,26,14.5,26z M14.5,18.5
		c1.7,0,3.1,1.4,3.1,3.1c0,1.7-1.4,3.1-3.1,3.1s-3.1-1.4-3.1-3.1C11.3,19.9,12.7,18.5,14.5,18.5z"/>
	<path class="st0" d="M38.5,64.8c-1.7,0-3.1,1.4-3.1,3.1c0,1.7,1.4,3.1,3.1,3.1c1.7,0,3.1-1.4,3.1-3.1
		C41.7,66.2,40.3,64.8,38.5,64.8z M38.5,69.8c-1,0-1.9-0.8-1.9-1.9c0-1.1,0.8-1.9,1.9-1.9c1.1,0,1.9,0.8,1.9,1.9
		C40.5,69,39.6,69.8,38.5,69.8z"/>
	<circle class="st3" cx="15" cy="41.6" r="12.5"/>
</g>
<ellipse class="st3" cx="56.5" cy="26.5" rx="17" ry="16.4"/>
<g id="Group_2_00000109743036549773850530000011285478580167182776_">
	<path id="Vector_5_00000170975011814086799660000018241510978910498723_" class="st4" d="M32.5,12.4l-0.7-0.7"/>
	<path id="Vector_6_00000095337491320777222900000006499190522895002755_" class="st4" d="M32.5,9.1l-0.7-0.7"/>
	<path id="Vector_7_00000014626423295118040560000011135437944983912580_" class="st4" d="M32.5,5.7L31.8,5"/>
	<path id="Vector_8_00000138559062578553375980000003144013904093655716_" class="st4" d="M35.8,12.4l-0.7-0.7"/>
	<path id="Vector_9_00000114780044986263147940000016645692849896819381_" class="st4" d="M35.8,9.1l-0.7-0.7"/>
	<path id="Vector_10_00000125568549358819610150000012826067420600447634_" class="st4" d="M35.8,5.7L35.1,5"/>
	<path id="Vector_11_00000101807002481030330000000017909237048259418513_" class="st4" d="M39.3,12.4l-0.7-0.7"/>
	<path id="Vector_12_00000026883479883288959840000012108954359221019806_" class="st4" d="M39.3,9.1l-0.7-0.7"/>
	<path id="Vector_13_00000070089935187942013200000004534569701936238980_" class="st4" d="M39.3,5.7L38.7,5"/>
</g>
<g id="Group_5_00000083061113982967434400000015139330331673281946_">
	<path id="Vector_9_00000133524978565486215310000010492867888646155931_" class="st4" d="M51,35.9v-2"/>
	<path id="Vector_10_00000098926657467217741140000014471124281776698768_" class="st4" d="M47.2,37.7H49"/>
	<path id="Vector_11_00000163033734700835259180000010350620207298088097_" class="st4" d="M53,37.7h1.7"/>
	<path id="Vector_12_00000153703399665046731810000000033950408512426134_" class="st4" d="M51,41.4v-2.3"/>
</g>
<g>
	<g id="XMLID_00000012434235483494338210000013045984552996193935_">
		<g>
			<path class="st2" d="M24.9,39.2h-3.1h-3.1l-6.1,4.1v-9.2c0.5-1.2,1.4-2.9,4.1-3.1c1.3,0,5.1,0,5.1,0c2,0,6.2,6,5.1,8.2H24.9z"/>
		</g>
		<g>
		</g>
	</g>
</g>
<g>
	<g id="XMLID_00000091703035300864096410000015984321314447713423_">
		<g>
			<path class="st1" d="M60,25.9v3.9H40c-0.9-1.4-0.8-5.3,0-6.8h16.2C59.5,23.1,60,25.9,60,25.9z"/>
		</g>
		<g>
		</g>
	</g>
</g>
</svg>
