<svg width="76" height="76" viewBox="0 0 76 76" fill="none" xmlns="http://www.w3.org/2000/svg">
<g id="Frame">
<g id="Task management 1">
<g id="Group">
<path id="Vector" d="M25.8459 30.5217C31.3615 30.5217 35.8328 26.0504 35.8328 20.5348C35.8328 15.0192 31.3615 10.548 25.8459 10.548C20.3303 10.548 15.8591 15.0192 15.8591 20.5348C15.8591 26.0504 20.3303 30.5217 25.8459 30.5217Z" fill="#3B6EED"/>
<path id="Vector_2" d="M52.4192 68.3851C61.678 68.3851 69.1838 60.8794 69.1838 51.6206C69.1838 42.3618 61.678 34.8561 52.4192 34.8561C43.1604 34.8561 35.6547 42.3618 35.6547 51.6206C35.6547 60.8794 43.1604 68.3851 52.4192 68.3851Z" fill="#3B6EED"/>
<path id="Vector_3" d="M61.94 58.6744L60.3012 62.6525L58.8287 58.4844C58.4933 57.5314 58.3211 56.528 58.3211 55.5157V37.905H62.6109V55.2782C62.6139 56.4419 62.3853 57.5968 61.94 58.6744Z" fill="#FFB711"/>
<g id="Icon ionic ios settings 4">
<path d="M20.2736 39.422C19.3533 39.2647 18.4122 39.2587 17.4889 39.3953C17.5037 40.6244 16.5211 41.6308 15.292 41.6456C14.6686 41.6545 14.0689 41.3992 13.6414 40.942C12.8784 41.4823 12.2075 42.1414 11.6523 42.8895C12.3114 43.5337 12.5044 44.5134 12.1452 45.3625C11.783 46.2086 10.9398 46.7459 10.0195 46.7133C9.86219 47.6336 9.85625 48.5747 9.99281 49.4979C10.3045 49.495 10.6133 49.5544 10.9012 49.6761C12.0294 50.154 12.5578 51.4573 12.0798 52.5884C11.9581 52.8764 11.777 53.1347 11.5455 53.3484C12.0858 54.1084 12.7419 54.7794 13.49 55.3345C14.342 54.4528 15.7492 54.4261 16.6339 55.2811C17.0881 55.7205 17.3345 56.332 17.3108 56.9614C18.2311 57.1187 19.1722 57.1247 20.0955 56.9881L20.2736 39.422ZM20.2706 51.4336C19.4127 51.8344 18.4062 51.9056 17.4711 51.5494C15.5503 50.8161 14.6389 48.6429 15.4375 46.7697C16.2153 44.9379 18.332 44.0859 20.1608 44.8637H20.1637" fill="white"/>
<path d="M20.2706 51.4336C19.4127 51.8344 18.4062 51.9056 17.4711 51.5494C15.5503 50.8161 14.6389 48.6429 15.4375 46.7697C16.2153 44.9379 18.332 44.0859 20.1608 44.8637H20.1637M20.2736 39.422C19.3533 39.2647 18.4122 39.2587 17.4889 39.3953C17.5037 40.6244 16.5211 41.6308 15.292 41.6456C14.6686 41.6545 14.0689 41.3992 13.6414 40.942C12.8784 41.4823 12.2075 42.1414 11.6523 42.8895C12.3114 43.5337 12.5044 44.5134 12.1452 45.3625C11.783 46.2086 10.9398 46.7459 10.0195 46.7133C9.86219 47.6336 9.85625 48.5747 9.99281 49.4979C10.3045 49.495 10.6133 49.5544 10.9012 49.6761C12.0294 50.154 12.5578 51.4573 12.0798 52.5884C11.9581 52.8764 11.777 53.1347 11.5455 53.3484C12.0858 54.1084 12.7419 54.7794 13.49 55.3345C14.342 54.4528 15.7492 54.4261 16.6339 55.2811C17.0881 55.7205 17.3345 56.332 17.3108 56.9614C18.2311 57.1187 19.1722 57.1247 20.0955 56.9881L20.2736 39.422Z" stroke="white" stroke-miterlimit="10"/>
</g>
<path id="Icon ionic ios settings 1" d="M8.67766 32.0446C8.34219 32.4929 7.76922 32.6888 7.22891 32.5374C7.00625 33.057 6.86672 33.6121 6.81625 34.1762C7.00032 34.2178 7.17547 34.2979 7.32688 34.4107C7.9236 34.856 8.04829 35.6992 7.60594 36.2959C7.49313 36.4473 7.34766 36.5749 7.18141 36.667C7.38922 37.1924 7.68313 37.6823 8.04532 38.1157C8.67469 37.7179 9.50891 37.9049 9.90672 38.5343C10.1116 38.8579 10.1709 39.2528 10.0641 39.6238C10.5836 39.8465 11.1388 39.986 11.7028 40.0365C11.8661 39.3092 12.5875 38.852 13.3119 39.0153C13.4959 39.0568 13.6711 39.137 13.8225 39.2498C13.9739 39.3626 14.1016 39.5051 14.1936 39.6713C14.7191 39.4576 15.2089 39.1667 15.6453 38.8045C15.2475 38.1751 15.4345 37.3409 16.0639 36.9401C16.3875 36.7353 16.7823 36.6788 17.1505 36.7798C17.3731 36.2603 17.5127 35.7051 17.5631 35.141C16.8358 34.9778 16.3816 34.2534 16.5448 33.529C16.628 33.1579 16.8655 32.8373 17.198 32.6503C16.9872 32.1248 16.6963 31.6349 16.3341 31.1985C15.7047 31.5963 14.8734 31.4093 14.4756 30.7799C14.2708 30.4563 14.2144 30.0645 14.3183 29.6963C13.7988 29.4737 13.2436 29.3342 12.6795 29.2837C12.5133 30.011 11.7889 30.4653 11.0616 30.296C10.6934 30.2099 10.3758 29.9754 10.1888 29.6459C9.66329 29.8567 9.17344 30.1476 8.73704 30.5098C9.03688 30.9878 9.01313 31.5963 8.67766 32.0446ZM13.4781 32.8967C14.4281 33.6032 14.6389 34.9332 13.968 35.8981C13.2911 36.8718 11.9106 37.1242 10.9339 36.4532C9.90672 35.7467 9.67813 34.3335 10.4173 33.342C11.1388 32.3742 12.5073 32.1753 13.4781 32.8967Z" stroke="white" stroke-miterlimit="10"/>
<path id="Vector_4" d="M53.2772 69.1451L51.5702 67.4381C51.0299 66.8977 51.0299 66.022 51.5702 65.4817L53.2772 63.7746C53.8175 63.2343 54.6933 63.2343 55.2336 63.7746L56.9406 65.4817C57.4809 66.022 57.4809 66.8977 56.9406 67.4381L55.2336 69.1451C54.6933 69.6854 53.8175 69.6854 53.2772 69.1451Z" stroke="white" stroke-miterlimit="10" stroke-linecap="round"/>
<g id="Group_2">
<path id="Vector_5" d="M48.7202 13.8135L48.0374 13.1307" stroke="white" stroke-miterlimit="10" stroke-linecap="round"/>
<path id="Vector_6" d="M48.7202 10.4737L48.0374 9.79089" stroke="white" stroke-miterlimit="10" stroke-linecap="round"/>
<path id="Vector_7" d="M48.7202 7.13093L48.0374 6.44812" stroke="white" stroke-miterlimit="10" stroke-linecap="round"/>
<path id="Vector_8" d="M52.06 13.8135L51.3772 13.1307" stroke="white" stroke-miterlimit="10" stroke-linecap="round"/>
<path id="Vector_9" d="M52.06 10.4737L51.3772 9.79089" stroke="white" stroke-miterlimit="10" stroke-linecap="round"/>
<path id="Vector_10" d="M52.06 7.13093L51.3772 6.44812" stroke="white" stroke-miterlimit="10" stroke-linecap="round"/>
<path id="Vector_11" d="M55.5928 13.8135L54.91 13.1307" stroke="white" stroke-miterlimit="10" stroke-linecap="round"/>
<path id="Vector_12" d="M55.5928 10.4737L54.91 9.79089" stroke="white" stroke-miterlimit="10" stroke-linecap="round"/>
<path id="Vector_13" d="M55.5928 7.13093L54.91 6.44812" stroke="white" stroke-miterlimit="10" stroke-linecap="round"/>
</g>
<path id="Vector_14" d="M46.7756 19.095H53.2089C54.3014 19.095 55.1891 19.9826 55.1891 21.0751V55.8867C55.1891 56.9792 54.3014 57.8668 53.2089 57.8668H49.0853" stroke="white" stroke-miterlimit="10" stroke-linecap="round" stroke-linejoin="round"/>
<path id="Vector_15" d="M38.5255 19.095H44.7955" stroke="white" stroke-miterlimit="10" stroke-linecap="round" stroke-linejoin="round"/>
<path id="Vector_16" d="M26.4813 24.0439V21.0751C26.4813 19.9826 27.3689 19.095 28.4614 19.095H36.2158" stroke="white" stroke-miterlimit="10" stroke-linecap="round" stroke-linejoin="round"/>
<path id="Vector_17" d="M48.8567 44.8341V60.7555C48.8567 61.848 47.9691 62.7357 46.8766 62.7357H42.1533H35.5538H27.6361H24.6673H22.2538C21.1613 62.7357 20.2736 61.848 20.2736 60.7555V26.1072C20.2736 25.0147 21.1613 24.1271 22.2538 24.1271H41.138L48.8597 30.6969V41.5329" stroke="white" stroke-miterlimit="10" stroke-linecap="round" stroke-linejoin="round"/>
<path id="Vector_18" d="M41.1647 24.0439V28.6633C41.1647 29.7558 42.0524 30.6435 43.1449 30.6435H48.7528L41.1647 24.0439Z" fill="white" stroke="white" stroke-miterlimit="10" stroke-linecap="round" stroke-linejoin="round"/>
<path id="Vector_19" d="M61.7797 59.0663L60.3042 62.6526L58.9564 58.8288C58.5378 57.6472 58.327 56.4004 58.327 55.1476V21.2415C58.327 20.0569 59.2859 19.098 60.4705 19.098C61.655 19.098 62.6139 20.0569 62.6139 21.2415V54.8536C62.6139 56.2994 62.3289 57.7304 61.7797 59.0663Z" stroke="white" stroke-miterlimit="10" stroke-linecap="round" stroke-linejoin="round"/>
<path id="Vector_20" d="M62.6139 23.3849H58.3241V26.0241H62.6139V23.3849Z" fill="white" stroke="white" stroke-miterlimit="10" stroke-linecap="round" stroke-linejoin="round"/>
<path id="Vector_21" d="M28.2952 38.6413C29.1363 38.6413 29.8181 37.9594 29.8181 37.1183C29.8181 36.2772 29.1363 35.5953 28.2952 35.5953C27.454 35.5953 26.7722 36.2772 26.7722 37.1183C26.7722 37.9594 27.454 38.6413 28.2952 38.6413Z" fill="#FFB711" stroke="white" stroke-miterlimit="10" stroke-linecap="round" stroke-linejoin="round"/>
<path id="Vector_22" d="M28.2952 44.8875C29.1363 44.8875 29.8181 44.2056 29.8181 43.3645C29.8181 42.5234 29.1363 41.8416 28.2952 41.8416C27.454 41.8416 26.7722 42.5234 26.7722 43.3645C26.7722 44.2056 27.454 44.8875 28.2952 44.8875Z" fill="#FFB711" stroke="white" stroke-miterlimit="10" stroke-linecap="round" stroke-linejoin="round"/>
<path id="Vector_23" d="M28.2952 51.1011C29.1363 51.1011 29.8181 50.4193 29.8181 49.5781C29.8181 48.737 29.1363 48.0552 28.2952 48.0552C27.454 48.0552 26.7722 48.737 26.7722 49.5781C26.7722 50.4193 27.454 51.1011 28.2952 51.1011Z" fill="white" stroke="white" stroke-miterlimit="10" stroke-linecap="round" stroke-linejoin="round"/>
<path id="Vector_24" d="M32.2555 37.2429H39.8436" stroke="white" stroke-miterlimit="10" stroke-linecap="round" stroke-linejoin="round"/>
<path id="Vector_25" d="M26.6475 31.9645H28.2952" stroke="white" stroke-miterlimit="10" stroke-linecap="round" stroke-linejoin="round"/>
<path id="Vector_26" d="M30.2753 31.9645H31.9259" stroke="white" stroke-miterlimit="10" stroke-linecap="round" stroke-linejoin="round"/>
<path id="Vector_27" d="M33.9061 31.9645H35.5567" stroke="white" stroke-miterlimit="10" stroke-linecap="round" stroke-linejoin="round"/>
<path id="Vector_28" d="M32.2555 43.1835H39.8436" stroke="white" stroke-miterlimit="10" stroke-linecap="round" stroke-linejoin="round"/>
<path id="Vector_29" d="M32.2555 49.4534H36.5453" stroke="white" stroke-miterlimit="10" stroke-linecap="round" stroke-linejoin="round"/>
<g id="Group_3">
<path id="Vector_30" d="M53.0427 22.3962V33.6151" stroke="white" stroke-miterlimit="10" stroke-linecap="round" stroke-linejoin="round"/>
<path id="Vector_31" d="M53.0427 36.2544V39.5527" stroke="white" stroke-miterlimit="10" stroke-linecap="round" stroke-linejoin="round"/>
</g>
<g id="Group_4">
<path id="Vector_32" d="M19.9144 20.0865H13.9086C12.9259 20.0865 12.1273 19.2879 12.1273 18.3053V12.2965C12.1273 11.3139 12.9259 10.5153 13.9086 10.5153H19.9144C20.897 10.5153 21.6956 11.3139 21.6956 12.2965V18.3023C21.6956 19.2879 20.9 20.0865 19.9144 20.0865Z" fill="#FFB711" stroke="white" stroke-miterlimit="10" stroke-linecap="round" stroke-linejoin="round"/>
<path id="Vector_33" d="M15.0516 15.568L16.248 16.7615L19.1722 13.8402" stroke="white" stroke-miterlimit="10" stroke-linecap="round" stroke-linejoin="round"/>
</g>
</g>
</g>
</g>
</svg>
