<?xml version="1.0" encoding="utf-8"?>
<!-- Generator: Adobe Illustrator 26.4.1, SVG Export Plug-In . SVG Version: 6.00 Build 0)  -->
<svg version="1.1" id="Capa_1" xmlns="http://www.w3.org/2000/svg" xmlns:xlink="http://www.w3.org/1999/xlink" width="76" height="76"
	 viewBox="0 0 76 76" style="enable-background:new 0 0 76 76;" xml:space="preserve">
<style type="text/css">
	.st0{fill:#FFFFFF;}
	.st1{fill:#2662FA;}
	.st2{fill:#FFB711;}
	.st3{opacity:0.32;fill:#FFFFFF;}
</style>
<g id="_x37_7_x2C__Computer_x2C__Website_x2C__Wireframe_00000054944412599594399080000005979926637700940469_">
	<g>
		<g>
			<path class="st0" d="M33.8,49.8c0.7,0,1.2,0.5,1.2,1.2c0,0.7-0.5,1.2-1.2,1.2c-0.7,0-1.2-0.5-1.2-1.2
				C32.6,50.3,33.1,49.8,33.8,49.8z"/>
			<path class="st0" d="M22,56.2c0.5,0,0.8,0.4,0.8,0.8c0,0.5-0.4,0.8-0.8,0.8c-0.5,0-0.8-0.4-0.8-0.8C21.2,56.5,21.5,56.2,22,56.2z
				"/>
			<path class="st0" d="M49.6,59.5c0.5,0,0.8,0.4,0.8,0.8c0,0.5-0.4,0.8-0.8,0.8c-0.5,0-0.8-0.4-0.8-0.8
				C48.7,59.9,49.1,59.5,49.6,59.5z"/>
			<path class="st0" d="M55.9,14.1c0.5,0,0.8,0.4,0.8,0.8c0,0.5-0.4,0.8-0.8,0.8c-0.5,0-0.8-0.4-0.8-0.8
				C55.1,14.5,55.5,14.1,55.9,14.1z"/>
			<path class="st0" d="M32.3,15.3c0.5,0,0.8,0.4,0.8,0.8c0,0.5-0.4,0.8-0.8,0.8c-0.5,0-0.8-0.4-0.8-0.8
				C31.5,15.6,31.8,15.3,32.3,15.3z"/>
			<path class="st0" d="M14.5,14.1c0.5,0,0.8,0.4,0.8,0.8c0,0.5-0.4,0.8-0.8,0.8c-0.5,0-0.8-0.4-0.8-0.8
				C13.7,14.5,14.1,14.1,14.5,14.1z"/>
			<path class="st0" d="M9.3,57.8c0.5,0,0.8,0.4,0.8,0.8c0,0.5-0.4,0.8-0.8,0.8c-0.5,0-0.8-0.4-0.8-0.8C8.5,58.2,8.8,57.8,9.3,57.8z
				"/>
			<path class="st0" d="M15.9,57.3c-2.2,0-4,1.8-4,4c0,2.2,1.8,4,4,4c2.2,0,4-1.8,4-4C20,59.1,18.1,57.3,15.9,57.3z"/>
			<g id="XMLID_00000181079676261334463410000003150950144499110309_">
				<g>
					<path class="st1" d="M18.8,61.3c0.1,1.5-1.3,2.8-2.9,2.8s-2.8-1.3-2.8-2.8c0-1.5,1.3-2.8,2.8-2.8S18.8,59.7,18.8,61.3z"/>
				</g>
				<g>
				</g>
			</g>
			<path class="st0" d="M55.6,22H12c-0.3,0-0.6,0.3-0.6,0.5v25c0,0.3,0.3,0.5,0.6,0.5h43.7c0.3,0,0.6-0.3,0.6-0.5V22.6
				C56.2,22.3,55.9,22,55.6,22z M55,47H12.5V23.2h42.6L55,47L55,47z"/>
			<path class="st0" d="M55.4,18.6H12.1c-2.4,0-4.2,1.9-4.2,4.2v28c0,2.4,1.9,4.2,4.2,4.2h12.4v0.1c0,1.5,1.3,2.8,2.8,2.8h1.7v3.5
				h-4.3c-1.1,0-2,0.9-2,2c0,1.1,0.9,2,2,2h17.8c1.1,0,2-0.9,2-2c0-1.1-0.9-2-2-2h-4.3v-3.5h1.7c1.6,0,2.8-1.3,2.8-2.8V55h12.4
				c2.4,0,4.2-1.9,4.2-4.2v-28C59.6,20.5,57.7,18.6,55.4,18.6z M43.5,63.2c0,0.5-0.4,0.8-0.8,0.8H24.8c-0.5,0-0.8-0.4-0.8-0.8
				c0-0.5,0.4-0.8,0.8-0.8c3.7,0,14,0,17.8,0C43.1,62.4,43.5,62.7,43.5,63.2z M37.2,61.3h-6.9v-3.5h6.9V61.3z M41.8,55
				c0,0.9-0.7,1.6-1.7,1.6c-1.5,0-11.1,0-12.8,0c-0.9,0-1.7-0.7-1.7-1.6v-0.1L41.8,55L41.8,55z M58.5,50.8c0,1.7-1.4,3.1-3.1,3.1
				c-1.5,0-41.6,0-43.2,0c-1.7,0-3.1-1.4-3.1-3.1v-28c0-1.7,1.4-3.1,3.1-3.1h43.2c1.7,0,3.1,1.4,3.1,3.1V50.8z"/>
			<path class="st0" d="M20,31.7h28.8c0.3,0,0.6-0.3,0.6-0.5v-5.1c0-0.3-0.3-0.5-0.6-0.5H20c-0.3,0-0.6,0.3-0.6,0.5v5.1
				C19.4,31.5,19.7,31.7,20,31.7z M20.5,26.5h27.6v4H20.5V26.5z"/>
			<g id="XMLID_00000183965034583986015840000009747190670201967285_">
				<g>
					<path class="st0" d="M30.9,34v10.2c0,0.3-0.3,0.5-0.6,0.5H20c-0.3,0-0.5-0.3-0.5-0.5V34c0-0.3,0.3-0.5,0.5-0.5h10.4
						C30.6,33.4,30.9,33.7,30.9,34z M29.7,43.6v-9.1h-9.2v9.1H29.7z"/>
					<rect x="20.5" y="34.5" class="st2" width="9.2" height="9.1"/>
				</g>
				<g>
				</g>
			</g>
			<path class="st0" d="M48.7,33.4h-15c-0.3,0-0.6,0.3-0.6,0.5v2.8c0,0.3,0.3,0.5,0.6,0.5h15c0.3,0,0.6-0.3,0.6-0.5v-2.8
				C49.3,33.6,49,33.4,48.7,33.4z"/>
			<g id="XMLID_00000124865034666220978980000014706094299603469442_">
				<g>
					<rect x="34.3" y="34.5" class="st1" width="13.8" height="1.7"/>
				</g>
				<g>
				</g>
			</g>
			<path class="st0" d="M48.7,39.1h-15c-0.3,0-0.6,0.3-0.6,0.5v4.5c0,0.3,0.3,0.5,0.6,0.5h15c0.3,0,0.6-0.3,0.6-0.5v-4.5
				C49.3,39.4,49,39.1,48.7,39.1z M48.1,43.6H34.3v-3.5h13.8V43.6z"/>
			<path class="st0" d="M57,59c0.5,0,0.8,0.4,0.8,0.8c0,0.5-0.4,0.8-0.8,0.8c-0.5,0-0.8-0.4-0.8-0.8C56.2,59.4,56.6,59,57,59z"/>
		</g>
	</g>
	<circle class="st3" cx="13.5" cy="21.6" r="11.4"/>
	<ellipse class="st3" cx="58.4" cy="45.1" rx="15.4" ry="14.9"/>
</g>
</svg>
