<?xml version="1.0" encoding="utf-8"?>
<!-- Generator: Adobe Illustrator 26.4.1, SVG Export Plug-In . SVG Version: 6.00 Build 0)  -->
<svg version="1.1" id="Capa_1" xmlns="http://www.w3.org/2000/svg" xmlns:xlink="http://www.w3.org/1999/xlink" width="76" height="76"
	 viewBox="0 0 76 76" style="enable-background:new 0 0 76 76;" xml:space="preserve">
<style type="text/css">
	.st0{fill:#3B6EED;}
	.st1{fill:#FFFFFF;}
	.st2{fill:#FFB711;}
</style>
<g id="_x39_4_x2C__Design_x2C__Experience_x2C__Testing_x2C__User_x2C__Ux_00000026852149276394888250000009429080516488695480_">
	<path id="Vector_2_00000162324134469165116860000016612278380695177658_" class="st0" d="M16.6,73.8c5.1,0,9.3-4.1,9.3-9.3
		s-4.1-9.3-9.3-9.3s-9.3,4.1-9.3,9.3S11.5,73.8,16.6,73.8z"/>
	<path id="Vector_2_00000129884405662576469990000000797340270727515272_" class="st0" d="M35.5,34.7c9,0,16.3-7.3,16.3-16.3
		S44.5,2.2,35.5,2.2S19.3,9.5,19.3,18.5S26.5,34.7,35.5,34.7z"/>
	<g>
		<g>
			<path class="st1" d="M29.4,26.1c0.7,0,1.3,0.6,1.3,1.3c0,0.7-0.6,1.3-1.3,1.3c-0.7,0-1.3-0.6-1.3-1.3
				C28.2,26.7,28.7,26.1,29.4,26.1z"/>
			<path class="st1" d="M25.8,26.1c0.7,0,1.3,0.6,1.3,1.3c0,0.7-0.6,1.3-1.3,1.3c-0.7,0-1.3-0.6-1.3-1.3
				C24.5,26.7,25.1,26.1,25.8,26.1z"/>
			<path class="st1" d="M22.1,26.1c0.7,0,1.3,0.6,1.3,1.3c0,0.7-0.6,1.3-1.3,1.3c-0.7,0-1.3-0.6-1.3-1.3
				C20.8,26.7,21.4,26.1,22.1,26.1z"/>
			<path class="st1" d="M23.9,21.3c1.4,0,2.5-1.1,2.5-2.4c0-1.4-1.1-2.4-2.5-2.4c-1.4,0-2.5,1.1-2.5,2.4
				C21.5,20.2,22.6,21.3,23.9,21.3z M23.9,17.7c0.7,0,1.3,0.6,1.3,1.3c0,0.7-0.6,1.3-1.3,1.3s-1.3-0.6-1.3-1.3
				C22.7,18.2,23.3,17.7,23.9,17.7z"/>
			<path class="st1" d="M58,20.7c1.9,0,3.3-1.5,3.3-3.3c0-1.8-1.5-3.3-3.3-3.3c-1.9,0-3.3,1.5-3.3,3.3C54.6,19.2,56.1,20.7,58,20.7z
				"/>
			<g id="XMLID_00000162324146768502342820000005904946848646155929_">
				<g>
					<path class="st2" d="M58,15.3c1.2,0,2.2,1,2.2,2.1c0,1.2-1,2.1-2.2,2.1c-1.2,0-2.2-1-2.2-2.1C55.8,16.2,56.8,15.3,58,15.3z"/>
				</g>
				<g>
				</g>
			</g>
			<path class="st1" d="M15,22.5c0.5,0,0.9,0.4,0.9,0.9c0,0.5-0.4,0.9-0.9,0.9c-0.5,0-0.9-0.4-0.9-0.9C14.1,22.9,14.5,22.5,15,22.5z
				"/>
			<path class="st1" d="M32.2,16.5c0.5,0,0.9,0.4,0.9,0.9c0,0.5-0.4,0.9-0.9,0.9c-0.5,0-0.9-0.4-0.9-0.9
				C31.3,16.9,31.7,16.5,32.2,16.5z"/>
			<path class="st1" d="M49.3,17.7c0.5,0,0.9,0.4,0.9,0.9c0,0.5-0.4,0.9-0.9,0.9c-0.5,0-0.9-0.4-0.9-0.9
				C48.5,18.1,48.9,17.7,49.3,17.7z"/>
			<path class="st1" d="M38.4,20.1c0.5,0,0.9,0.4,0.9,0.9c0,0.5-0.4,0.9-0.9,0.9c-0.5,0-0.9-0.4-0.9-0.9
				C37.5,20.5,37.9,20.1,38.4,20.1z"/>
			<path class="st1" d="M67.8,22.5c0.5,0,0.9,0.4,0.9,0.9c0,0.5-0.4,0.9-0.9,0.9c-0.5,0-0.9-0.4-0.9-0.9
				C66.9,22.9,67.3,22.5,67.8,22.5z"/>
			<path class="st1" d="M61.7,23.1H20.5c-2.2,0-3.9,1.7-3.9,3.9v40.1c0,2.1,1.8,3.9,3.9,3.9h41.2c2.2,0,3.9-1.7,3.9-3.9V27
				C65.6,24.9,63.9,23.1,61.7,23.1z M37.4,28h27v2.4h-27V28z M64.4,26.8h-27v-2.4h24.3C63.1,24.4,64.3,25.5,64.4,26.8z M20.5,24.4
				h15.7v6H17.8V27C17.8,25.5,19,24.4,20.5,24.4z M54.5,52H44.2v-5.2c2.2,0,9,0,12.8,0c0.3,0,0.6-0.3,0.6-0.6v-7.3
				c0-0.3-0.3-0.6-0.6-0.6c-1.1,0-30.8,0-31.9,0c-0.3,0-0.6,0.3-0.6,0.6v7.3c0,0.3,0.3,0.6,0.6,0.6c1.5,0,11.7,0,12.9,0
				c0,2.6,0,5.9,0,7.5h-1.4c-1.3,0-2.3,1-2.3,2.2v4.3c0,1.5,0.3,2.9,0.9,4.2H22.7V36.5h36.8V65h-5.2c0.6-1.3,0.9-2.7,0.9-4.2v-8
				C55.2,52.3,54.9,52,54.5,52z M35.6,60.7v-4.3c0-0.6,0.5-1.1,1.1-1.1h1.4v4.4c0,0.3,0.3,0.6,0.6,0.6c0.3,0,0.6-0.3,0.6-0.6
				c0-1.6,0-12.5,0-14.1c0-1,0.8-1.8,1.9-1.8c1,0,1.8,0.8,1.8,1.8v6.9c0,0.3,0.3,0.6,0.6,0.6h10.4v7.5c0,5-4.1,9-9.1,9
				C39.7,69.8,35.6,65.7,35.6,60.7z M61.7,69.8h-12c1.6-0.9,2.9-2.1,3.9-3.7h6.5c0.3,0,0.6-0.3,0.6-0.6V35.8c0-0.3-0.3-0.6-0.6-0.6
				H22.1c-0.3,0-0.6,0.3-0.6,0.6v29.7c0,0.3,0.3,0.6,0.6,0.6H36c1,1.6,2.4,2.8,3.9,3.7H20.5c-1.5,0-2.7-1.2-2.7-2.7V31.7h46.6v35.5
				C64.4,68.6,63.2,69.8,61.7,69.8z"/>
			<g id="XMLID_00000116945931447344973870000003379082006490674334_">
				<g>
					<path class="st1" d="M46,39.4v6.1h-1.9c-0.1-1.6-1.5-2.8-3-2.8c-1.6,0-2.9,1.3-3,2.8h-1.9v-6.1H46z"/>
				</g>
				<g>
				</g>
			</g>
			<g id="XMLID_00000113312736712792892650000003982393861381075122_">
				<g>
					<rect x="47.2" y="39.5" class="st2" width="9.2" height="6.1"/>
				</g>
				<g>
				</g>
			</g>
			<g id="XMLID_00000067197346802929683100000013582996051404283815_">
				<g>
					<rect x="25.8" y="39.4" class="st2" width="9.2" height="6.1"/>
				</g>
				<g>
				</g>
			</g>
			<path class="st1" d="M43.6,64.5c0.3,0,0.6-0.3,0.6-0.6v-8c0-0.3-0.3-0.6-0.6-0.6c-0.3,0-0.6,0.3-0.6,0.6v8
				C43,64.2,43.3,64.5,43.6,64.5z"/>
			<path class="st1" d="M46.8,64.5c0.3,0,0.6-0.3,0.6-0.6v-6.5c0-0.3-0.3-0.6-0.6-0.6c-0.3,0-0.6,0.3-0.6,0.6v6.5
				C46.2,64.2,46.5,64.5,46.8,64.5z"/>
			<path class="st1" d="M50.1,64.5c0.3,0,0.6-0.3,0.6-0.6v-4.8c0-0.3-0.3-0.6-0.6-0.6c-0.3,0-0.6,0.3-0.6,0.6v4.8
				C49.5,64.2,49.7,64.5,50.1,64.5z"/>
		</g>
	</g>
</g>
</svg>
