<svg xmlns="http://www.w3.org/2000/svg" viewBox="84.872 180.746 126.87 22.902" height="55" fill="#FFFFFF" ><path d="M137.712 188.316c1.08 0 2 .24 2.8.71.78.47 1.4 1.14 1.82 1.99.44.85.65 1.84.65 2.97s-.21 2.12-.65 2.97a4.8 4.8 0 0 1-1.83 1.97 5.3 5.3 0 0 1-2.79.7c-1.07 0-2-.23-2.79-.7-.787-.467-2.497-3.913-2.47-4.94 0-1.13.21-2.13.64-2.97a4.77 4.77 0 0 1 1.83-1.99c.79-.47 1.72-.7 2.8-.7zm-21.47-3.5 2.65 10.73h.13l2.82-10.73h2.6l2.83 10.74h.13l2.64-10.74h2.85l-4.12 14.6h-2.62l-2.94-10.25h-.11l-2.95 10.25h-2.62l-4.14-14.6zm21.49 5.55c-.6 0-1.1.16-1.49.49a2.9 2.9 0 0 0-.88 1.3 5.4 5.4 0 0 0-.29 1.82c0 .67.1 1.27.3 1.81.18.54.48.97.87 1.3.4.32.9.48 1.49.48.58 0 1.07-.16 1.46-.48.39-.33.68-.76.88-1.3a5.4 5.4 0 0 0 .29-1.8q0-1.02-.3-1.83a2.9 2.9 0 0 0-.87-1.3c-.4-.33-.87-.49-1.46-.49m11.84-2.05a2.75 2.75 0 0 0-2.7 1.98h-.12v-1.83h-2.5v10.96h2.58v-6.44a2.27 2.27 0 0 1 1.2-2.07c.39-.2.81-.3 1.28-.3q.608.005 1.2.14v-2.37a9 9 0 0 0-.93-.07zm8.95 1.96h-.1a5 5 0 0 0-.57-.85q-.36-.45-.99-.78a3.45 3.45 0 0 0-1.59-.32 4.24 4.24 0 0 0-3.93 2.55 7.1 7.1 0 0 0-.6 3.08c0 1.22.2 2.22.59 3.06a4.16 4.16 0 0 0 3.94 2.59 3.16 3.16 0 0 0 2.57-1.07c.25-.3.44-.58.58-.84h.15v1.72h2.55v-14.6h-2.6zm-.25 5.53c-.2.53-.5.95-.88 1.24-.38.3-.85.45-1.4.45s-1.04-.15-1.43-.46c-.4-.3-.69-.73-.88-1.26q-.3-.81-.3-1.83c0-.69.1-1.28.3-1.81.19-.53.48-.94.87-1.24.38-.3.87-.45 1.44-.45.58 0 1.03.15 1.42.43.38.3.67.7.87 1.22.2.53.3 1.14.3 1.85 0 .7-.1 1.33-.3 1.86zm13.24-10.36a5.9 5.9 0 0 0-2.84-.63h-5.5v14.6h2.66v-4.93h2.8c1.13 0 2.08-.2 2.86-.63a4.23 4.23 0 0 0 1.75-1.71c.4-.73.6-1.56.6-2.5s-.2-1.75-.6-2.48a4.23 4.23 0 0 0-1.73-1.72m-.68 5.58c-.2.4-.52.71-.93.94-.43.23-.96.34-1.62.34h-2.45v-5.28h2.43c.67 0 1.21.11 1.63.33s.74.53.94.92c.2.4.3.85.3 1.37 0 .53-.1.98-.3 1.38m9.39-2.71a2.75 2.75 0 0 0-2.71 1.98h-.12v-1.83h-2.51v10.96h2.59v-6.44a2.27 2.27 0 0 1 1.2-2.07c.38-.2.8-.3 1.28-.3q.608.005 1.2.14v-2.37a9 9 0 0 0-.93-.07m9.81 1.33c-.47-.45-1-.78-1.6-1a5.68 5.68 0 0 0-4.66.4 4.86 4.86 0 0 0-1.82 2 6.5 6.5 0 0 0-.65 2.96c0 1.13.22 2.14.65 2.99a4.6 4.6 0 0 0 1.84 1.95q1.2.69 2.85.69 1.275 0 2.28-.39a4.2 4.2 0 0 0 1.63-1.1c.43-.47.72-1.02.87-1.66l-2.42-.27a2 2 0 0 1-.5.78 2.56 2.56 0 0 1-1.82.63 2.9 2.9 0 0 1-1.48-.36 2.45 2.45 0 0 1-.98-1.04 3.5 3.5 0 0 1-.35-1.57h7.66v-.8c0-.96-.13-1.78-.4-2.48a4.7 4.7 0 0 0-1.1-1.72zm-6.15 3.26c.03-.43.13-.83.33-1.2a2.57 2.57 0 0 1 2.34-1.37 2.34 2.34 0 0 1 2.18 1.25c.2.38.31.82.32 1.32zm14.65.27-1.87-.4c-.56-.13-.96-.3-1.2-.5a.94.94 0 0 1-.36-.77q0-.555.54-.9c.37-.24.82-.36 1.36-.36.4 0 .74.07 1.02.2.27.13.5.3.66.5.16.21.28.44.35.67l2.36-.25a3.45 3.45 0 0 0-1.38-2.22 5.04 5.04 0 0 0-3.05-.82 6.2 6.2 0 0 0-2.32.4 3.6 3.6 0 0 0-1.57 1.16 2.8 2.8 0 0 0-.55 1.76q0 1.2.75 1.98c.5.52 1.29.89 2.34 1.1l1.88.4c.5.1.88.26 1.12.47q.36.3.36.78c0 .37-.19.68-.56.93-.38.25-.87.38-1.49.38a2.5 2.5 0 0 1-1.45-.38 1.76 1.76 0 0 1-.73-1.12l-2.53.24c.16 1 .65 1.8 1.47 2.36s1.9.84 3.25.84c.91 0 1.72-.15 2.43-.44.7-.3 1.26-.7 1.66-1.23s.6-1.13.6-1.82c0-.79-.26-1.42-.77-1.9a4.77 4.77 0 0 0-2.32-1.07zm10.13 0-1.88-.4c-.56-.13-.96-.3-1.2-.5a.94.94 0 0 1-.35-.77c0-.37.17-.67.54-.9a2.4 2.4 0 0 1 1.36-.36c.4 0 .73.07 1.01.2.495.219.866.648 1.01 1.17l2.36-.25a3.45 3.45 0 0 0-1.38-2.22 5.04 5.04 0 0 0-3.04-.82 6.1 6.1 0 0 0-2.32.4 3.6 3.6 0 0 0-1.57 1.16 2.8 2.8 0 0 0-.56 1.76c0 .8.25 1.46.76 1.98.5.52 1.28.89 2.34 1.1l1.87.4c.5.1.88.26 1.12.47q.36.3.36.78c0 .37-.18.68-.56.93s-.87.38-1.49.38a2.5 2.5 0 0 1-1.45-.38 1.76 1.76 0 0 1-.73-1.12l-2.53.24c.16 1 .65 1.8 1.47 2.36s1.9.84 3.25.84a6.3 6.3 0 0 0 2.43-.44c.71-.3 1.26-.7 1.66-1.23s.6-1.13.6-1.82c0-.79-.25-1.42-.76-1.9a4.77 4.77 0 0 0-2.32-1.07zm-112.32-12.43c6.32 0 11.46 5.12 11.46 11.42 0 8.826-9.554 14.342-17.198 9.929a11.47 11.47 0 0 1-5.732-9.929c0-6.3 5.14-11.42 11.47-11.42m.18 12.32-3.1 8.95c2.078.61 4.295.554 6.34-.16a1 1 0 0 1-.07-.15zm-9.6-5.08a10.26 10.26 0 0 0 4.92 13.43zm18.46-.75c.05.33.07.68.07 1.06 0 1.04-.2 2.21-.78 3.68l-3.15 9.06c4.818-2.79 6.531-8.914 3.86-13.8m-9.04-5.32c-3.6 0-6.77 1.84-8.62 4.63a24 24 0 0 0 3.41-.13c.56-.03.62.78.07.85 0 0-.56.06-1.18.1l3.75 11.11 2.26-6.74-1.6-4.39c-.56-.03-1.09-.1-1.09-.1-.55-.03-.49-.87.07-.84 0 0 1.7.13 2.71.13 1.08.01 2.75-.12 2.75-.12.55-.03.62.78.07.85 0 0-.56.06-1.18.1l3.72 11.04 1.03-3.43a9.5 9.5 0 0 0 .79-3.32 5.4 5.4 0 0 0-.85-2.83c-.53-.85-1.02-1.56-1.02-2.4 0-.95.72-1.83 1.74-1.83h.13a10.3 10.3 0 0 0-6.96-2.69z"/></svg>