<svg width="26" height="26" viewBox="0 0 26 26" fill="none" xmlns="http://www.w3.org/2000/svg">
<g id="Huge-icon/communication/outline/calling">
<path id="Vector" d="M16.25 17.2787L16.1033 18.0142C16.4345 18.0803 16.769 17.9168 16.9204 17.6149L16.25 17.2787ZM8.66667 9.71795L8.33206 9.04673C8.02893 9.19785 7.8647 9.53337 7.93132 9.86546L8.66667 9.71795ZM9.05019 9.52677L9.3848 10.198H9.3848L9.05019 9.52677ZM10.0929 6.79233L10.789 6.51307V6.51307L10.0929 6.79233ZM9.21146 4.59524L8.51539 4.8745V4.8745L9.21146 4.59524ZM21.388 16.7355L21.1102 17.4322L21.388 16.7355ZM19.1844 15.8567L19.4622 15.1601H19.4622L19.1844 15.8567ZM16.4418 16.8963L17.1122 17.2325L17.1122 17.2325L16.4418 16.8963ZM17.6667 11.8782C17.6667 12.2924 18.0025 12.6282 18.4167 12.6282C18.8309 12.6282 19.1667 12.2924 19.1667 11.8782H17.6667ZM18.0868 10.2248L18.7794 9.93707L18.0868 10.2248ZM15.7416 7.88661L16.0279 7.1934L15.7416 7.88661ZM14.0833 6.80774C13.6691 6.80774 13.3333 7.14352 13.3333 7.55774C13.3333 7.97195 13.6691 8.30774 14.0833 8.30774V6.80774ZM22 11.8782C22 12.2924 22.3358 12.6282 22.75 12.6282C23.1642 12.6282 23.5 12.2924 23.5 11.8782H22ZM22.0903 8.57145L22.7829 8.28371L22.0903 8.57145ZM17.3999 3.89505L17.6862 3.20184V3.20184L17.3999 3.89505ZM14.0833 2.4873C13.6691 2.4873 13.3333 2.82309 13.3333 3.2373C13.3333 3.65152 13.6691 3.9873 14.0833 3.9873V2.4873ZM22 18.7413V20.519H23.5V18.7413H22ZM5.41667 3.9873H7.19976V2.4873H5.41667V3.9873ZM16.25 17.2787C16.3967 16.5432 16.3969 16.5432 16.3971 16.5433C16.3971 16.5433 16.3973 16.5433 16.3974 16.5433C16.3976 16.5434 16.3978 16.5434 16.3979 16.5434C16.3982 16.5435 16.3983 16.5435 16.3982 16.5435C16.3981 16.5435 16.3974 16.5433 16.396 16.543C16.3932 16.5425 16.388 16.5413 16.3803 16.5397C16.3649 16.5363 16.34 16.5306 16.3062 16.5224C16.2385 16.506 16.1357 16.4795 16.004 16.4409C15.7402 16.3635 15.3624 16.2382 14.9197 16.049C14.0308 15.6692 12.9014 15.0412 11.9045 14.0473L10.8455 15.1096C12.0153 16.2759 13.3234 16.9981 14.3303 17.4283C14.8355 17.6442 15.2702 17.7889 15.5819 17.8803C15.738 17.926 15.8637 17.9586 15.9526 17.9802C15.9971 17.9909 16.0325 17.999 16.0578 18.0046C16.0705 18.0074 16.0807 18.0096 16.0883 18.0112C16.0921 18.0119 16.0953 18.0126 16.0978 18.0131C16.0991 18.0134 16.1001 18.0136 16.1011 18.0138C16.1015 18.0139 16.1019 18.014 16.1023 18.014C16.1025 18.0141 16.1028 18.0141 16.1029 18.0141C16.1031 18.0142 16.1033 18.0142 16.25 17.2787ZM11.9045 14.0473C10.9078 13.0535 10.2781 11.9277 9.89737 11.0419C9.70772 10.6007 9.58204 10.2242 9.50451 9.96142C9.46579 9.83018 9.43923 9.72778 9.4228 9.66044C9.41459 9.62678 9.40892 9.60193 9.40554 9.58666C9.40385 9.57902 9.40273 9.57379 9.40216 9.57105C9.40187 9.56969 9.40171 9.56894 9.40169 9.56884C9.40168 9.56878 9.4017 9.56889 9.40176 9.56916C9.40179 9.56929 9.40182 9.56947 9.40186 9.56968C9.40189 9.56979 9.40192 9.56998 9.40194 9.57003C9.40198 9.57023 9.40202 9.57045 8.66667 9.71795C7.93132 9.86546 7.93136 9.8657 7.93141 9.86594C7.93143 9.86603 7.93148 9.86629 7.93152 9.86648C7.9316 9.86685 7.93168 9.86727 7.93177 9.86774C7.93196 9.86866 7.93218 9.86975 7.93244 9.871C7.93296 9.87351 7.93362 9.87667 7.93442 9.88048C7.93602 9.88809 7.93821 9.89829 7.94102 9.91096C7.94663 9.9363 7.95471 9.97157 7.96554 10.016C7.9872 10.1047 8.01988 10.2302 8.0658 10.3858C8.15754 10.6968 8.30269 11.1304 8.51929 11.6343C8.95103 12.6387 9.67555 13.9431 10.8455 15.1096L11.9045 14.0473ZM9.00128 10.3892L9.3848 10.198L8.71557 8.85555L8.33206 9.04673L9.00128 10.3892ZM10.789 6.51307L9.90753 4.31598L8.51539 4.8745L9.39685 7.07159L10.789 6.51307ZM21.6658 16.0389L19.4622 15.1601L18.9065 16.5533L21.1102 17.4322L21.6658 16.0389ZM15.7713 16.5601L15.5796 16.9425L16.9204 17.6149L17.1122 17.2325L15.7713 16.5601ZM19.4622 15.1601C18.0554 14.599 16.4504 15.206 15.7713 16.5601L17.1122 17.2325C17.441 16.5769 18.2209 16.2799 18.9065 16.5533L19.4622 15.1601ZM9.3848 10.198C10.7412 9.52178 11.3534 7.91997 10.789 6.51307L9.39685 7.07159C9.66942 7.75097 9.37491 8.52686 8.71557 8.85555L9.3848 10.198ZM7.19976 3.9873C7.78037 3.9873 8.30083 4.33969 8.51539 4.8745L9.90753 4.31598C9.46402 3.2105 8.39107 2.4873 7.19976 2.4873V3.9873ZM23.5 18.7413C23.5 17.5499 22.7726 16.4803 21.6658 16.0389L21.1102 17.4322C21.6486 17.6469 22 18.1659 22 18.7413H23.5ZM20.5833 21.9293C11.4225 21.9293 4 14.5256 4 5.39752H2.5C2.5 15.3583 10.5983 23.4293 20.5833 23.4293V21.9293ZM20.5833 23.4293C22.1921 23.4293 23.5 22.1284 23.5 20.519H22C22 21.2958 21.3678 21.9293 20.5833 21.9293V23.4293ZM4 5.39752C4 4.62079 4.63215 3.9873 5.41667 3.9873V2.4873C3.80795 2.4873 2.5 3.78815 2.5 5.39752H4ZM19.1667 11.8782C19.1667 11.212 19.0351 10.5524 18.7794 9.93707L17.3942 10.5126C17.5741 10.9456 17.6667 11.4096 17.6667 11.8782H19.1667ZM18.7794 9.93707C18.5238 9.32173 18.1491 8.76277 17.677 8.29204L16.6179 9.35428C16.9506 9.68593 17.2143 10.0795 17.3942 10.5126L18.7794 9.93707ZM17.677 8.29204C17.2049 7.82132 16.6445 7.44803 16.0279 7.1934L15.4553 8.57982C15.8903 8.75943 16.2853 9.02263 16.6179 9.35428L17.677 8.29204ZM16.0279 7.1934C15.4113 6.93877 14.7506 6.80774 14.0833 6.80774V8.30774C14.5542 8.30774 15.0204 8.40021 15.4553 8.57982L16.0279 7.1934ZM23.5 11.8782C23.5 10.6446 23.2563 9.42323 22.7829 8.28371L21.3977 8.8592C21.7954 9.8164 22 10.8422 22 11.8782H23.5ZM22.7829 8.28371C22.3095 7.1442 21.6157 6.10896 20.7411 5.23704L19.6821 6.29928C20.4171 7.03211 21 7.90199 21.3977 8.8592L22.7829 8.28371ZM20.7411 5.23704C19.8666 4.36512 18.8285 3.6736 17.6862 3.20184L17.1136 4.58826C18.0743 4.98499 18.947 5.56643 19.6821 6.29928L20.7411 5.23704ZM17.6862 3.20184C16.5439 2.73009 15.3196 2.4873 14.0833 2.4873V3.9873C15.1233 3.9873 16.153 4.19153 17.1136 4.58826L17.6862 3.20184Z" fill="#2662FA"/>
</g>
</svg>
